<svg width="285" height="410" viewBox="0 0 285 410" fill="none" xmlns="http://www.w3.org/2000/svg">
<g filter="url(#filter0_d)">
<path d="M206.112 52.388C141.057 54.524 139.129 118.514 137.946 148.45C257.858 187.608 280.909 87.4523 270.391 32.6425C255.122 52.8454 215.519 52.171 206.112 52.388Z" fill="#20FC8F"/>
</g>
<g filter="url(#filter1_d)">
<path d="M157.361 46.5257C103.997 69.9046 125.635 123.799 135.525 149.104C249.541 141.876 232.345 50.871 203.683 8.74971C198.314 30.633 165.111 43.2217 157.361 46.5257Z" fill="#20FC8F"/>
</g>
<path d="M50.544 243.888C50.544 255.312 52.08 265.584 55.152 274.704C58.224 283.728 62.592 291.408 68.256 297.744C74.016 303.984 80.928 308.784 88.992 312.144C97.152 315.504 106.32 317.184 116.496 317.184C126.672 317.184 135.792 315.504 143.856 312.144C152.016 308.784 158.928 303.984 164.592 297.744C170.256 291.408 174.624 283.728 177.696 274.704C180.768 265.584 182.304 255.312 182.304 243.888C182.304 232.464 180.768 222.24 177.696 213.216C174.624 204.096 170.256 196.368 164.592 190.032C158.928 183.696 152.016 178.848 143.856 175.488C135.792 172.128 126.672 170.448 116.496 170.448C106.32 170.448 97.152 172.128 88.992 175.488C80.928 178.848 74.016 183.696 68.256 190.032C62.592 196.368 58.224 204.096 55.152 213.216C52.08 222.24 50.544 232.464 50.544 243.888ZM232.704 388.752H200.736C196.128 388.752 191.952 388.128 188.208 386.88C184.56 385.632 181.2 383.328 178.128 379.968L147.6 346.272C142.704 347.616 137.664 348.624 132.48 349.296C127.392 349.968 122.064 350.304 116.496 350.304C100.752 350.304 86.4 347.664 73.44 342.384C60.48 337.008 49.344 329.568 40.032 320.064C30.816 310.56 23.664 299.328 18.576 286.368C13.488 273.312 10.944 259.152 10.944 243.888C10.944 228.624 13.488 214.512 18.576 201.552C23.664 188.496 30.816 177.216 40.032 167.712C49.344 158.208 60.48 150.816 73.44 145.536C86.4 140.16 100.752 137.472 116.496 137.472C127.056 137.472 136.992 138.72 146.304 141.216C155.616 143.616 164.16 147.072 171.936 151.584C179.712 156 186.672 161.424 192.816 167.856C199.056 174.192 204.336 181.296 208.656 189.168C212.976 197.04 216.24 205.584 218.448 214.8C220.752 224.016 221.904 233.712 221.904 243.888C221.904 253.2 220.944 262.128 219.024 270.672C217.104 279.12 214.32 287.04 210.672 294.432C207.12 301.824 202.752 308.64 197.568 314.88C192.384 321.024 186.48 326.448 179.856 331.152L232.704 388.752Z" fill="#FF9F46"/>
<defs>
<filter id="filter0_d" x="129.946" y="24.6426" width="154.715" height="144.663" filterUnits="userSpaceOnUse" color-interpolation-filters="sRGB">
<feFlood flood-opacity="0" result="BackgroundImageFix"/>
<feColorMatrix in="SourceAlpha" type="matrix" values="0 0 0 0 0 0 0 0 0 0 0 0 0 0 0 0 0 0 127 0"/>
<feOffset dx="2" dy="2"/>
<feGaussianBlur stdDeviation="5"/>
<feColorMatrix type="matrix" values="0 0 0 0 0 0 0 0 0 0 0 0 0 0 0 0 0 0 0.05 0"/>
<feBlend mode="normal" in2="BackgroundImageFix" result="effect1_dropShadow"/>
<feBlend mode="normal" in="SourceGraphic" in2="effect1_dropShadow" result="shape"/>
</filter>
<filter id="filter1_d" x="114.723" y="0.749756" width="122.189" height="160.355" filterUnits="userSpaceOnUse" color-interpolation-filters="sRGB">
<feFlood flood-opacity="0" result="BackgroundImageFix"/>
<feColorMatrix in="SourceAlpha" type="matrix" values="0 0 0 0 0 0 0 0 0 0 0 0 0 0 0 0 0 0 127 0"/>
<feOffset dx="2" dy="2"/>
<feGaussianBlur stdDeviation="5"/>
<feColorMatrix type="matrix" values="0 0 0 0 0 0 0 0 0 0 0 0 0 0 0 0 0 0 0.05 0"/>
<feBlend mode="normal" in2="BackgroundImageFix" result="effect1_dropShadow"/>
<feBlend mode="normal" in="SourceGraphic" in2="effect1_dropShadow" result="shape"/>
</filter>
</defs>
</svg>
