<svg width="63" height="82" viewBox="0 0 63 82" fill="none" xmlns="http://www.w3.org/2000/svg">
<g filter="url(#filter0_d)">
<circle cx="27.0458" cy="27.2947" r="12.6064" fill="white"/>
<path d="M21.0237 34.0002C22.6163 35.6353 24.7821 36.5589 27.046 36.5589C28.1665 36.5589 29.2753 36.3323 30.309 35.8927C31.3426 35.4532 32.28 34.8096 33.0684 34.0002C33.8567 33.1908 34.4807 32.2314 34.906 31.1773C35.3313 30.1232 35.5498 28.9944 35.5498 27.855C35.5498 25.5549 34.6601 23.344 33.0684 21.7098C31.4758 20.0747 29.31 19.1511 27.046 19.1511C24.7821 19.1511 22.6163 20.0747 21.0237 21.7098C19.432 23.344 18.5422 25.5549 18.5422 27.855C18.5422 30.155 19.432 32.366 21.0237 34.0002ZM27.046 66.3773C27.0022 66.3253 26.9566 66.271 26.9093 66.2147C26.3403 65.5366 25.5257 64.5481 24.5476 63.3108C22.5905 60.835 19.9825 57.3684 17.3764 53.4027C14.7685 49.4344 12.1742 44.9841 10.2349 40.5396C8.28996 36.0826 7.0354 31.7024 7.0354 27.855C7.0354 22.3909 9.14988 17.1557 12.9056 13.2998C16.6605 9.44477 21.7475 7.28406 27.046 7.28406C32.3446 7.28406 37.4316 9.44477 41.1865 13.2998C44.9422 17.1557 47.0567 22.3909 47.0567 27.855C47.0567 31.7024 45.8021 36.0826 43.8572 40.5396C41.9178 44.9841 39.3236 49.4344 36.7157 53.4027C34.1096 57.3684 31.5016 60.835 29.5445 63.3108C28.5663 64.5481 27.7518 65.5366 27.1828 66.2147C27.1355 66.271 27.0899 66.3253 27.046 66.3773Z" fill="#20FA8E" stroke="white" stroke-width="2"/>
</g>
<defs>
<filter id="filter0_d" x="0.0354004" y="0.284058" width="62.0213" height="81.6312" filterUnits="userSpaceOnUse" color-interpolation-filters="sRGB">
<feFlood flood-opacity="0" result="BackgroundImageFix"/>
<feColorMatrix in="SourceAlpha" type="matrix" values="0 0 0 0 0 0 0 0 0 0 0 0 0 0 0 0 0 0 127 0"/>
<feOffset dx="4" dy="4"/>
<feGaussianBlur stdDeviation="5"/>
<feColorMatrix type="matrix" values="0 0 0 0 0.158333 0 0 0 0 0.158333 0 0 0 0 0.158333 0 0 0 0.25 0"/>
<feBlend mode="normal" in2="BackgroundImageFix" result="effect1_dropShadow"/>
<feBlend mode="normal" in="SourceGraphic" in2="effect1_dropShadow" result="shape"/>
</filter>
</defs>
</svg>
