<svg width="36" height="43" viewBox="0 0 36 43" fill="none" xmlns="http://www.w3.org/2000/svg">
<g filter="url(#filter0_d)">
<path d="M17.5541 11.8656C12.0135 12.0475 11.8492 17.4973 11.7486 20.0469C21.9611 23.3819 23.9243 14.8519 23.0285 10.1839C21.7281 11.9045 18.3552 11.8471 17.5541 11.8656Z" fill="#20FC8F"/>
</g>
<g filter="url(#filter1_d)">
<path d="M13.4021 11.3664C8.85717 13.3575 10.7 17.9475 11.5423 20.1027C21.2528 19.4871 19.7883 11.7364 17.3472 8.14907C16.8899 10.0128 14.0621 11.085 13.4021 11.3664Z" fill="#20FC8F"/>
</g>
<path d="M4.212 28.1785C4.212 29.1305 4.34 29.9865 4.596 30.7465C4.852 31.4985 5.216 32.1385 5.688 32.6665C6.168 33.1865 6.744 33.5865 7.416 33.8665C8.096 34.1465 8.86 34.2865 9.708 34.2865C10.556 34.2865 11.316 34.1465 11.988 33.8665C12.668 33.5865 13.244 33.1865 13.716 32.6665C14.188 32.1385 14.552 31.4985 14.808 30.7465C15.064 29.9865 15.192 29.1305 15.192 28.1785C15.192 27.2265 15.064 26.3745 14.808 25.6225C14.552 24.8625 14.188 24.2185 13.716 23.6905C13.244 23.1625 12.668 22.7585 11.988 22.4785C11.316 22.1985 10.556 22.0585 9.708 22.0585C8.86 22.0585 8.096 22.1985 7.416 22.4785C6.744 22.7585 6.168 23.1625 5.688 23.6905C5.216 24.2185 4.852 24.8625 4.596 25.6225C4.34 26.3745 4.212 27.2265 4.212 28.1785ZM19.392 40.2505H16.728C16.344 40.2505 15.996 40.1985 15.684 40.0945C15.38 39.9905 15.1 39.7985 14.844 39.5185L12.3 36.7105C11.892 36.8225 11.472 36.9065 11.04 36.9625C10.616 37.0185 10.172 37.0465 9.708 37.0465C8.396 37.0465 7.2 36.8265 6.12 36.3865C5.04 35.9385 4.112 35.3185 3.336 34.5265C2.568 33.7345 1.972 32.7985 1.548 31.7185C1.124 30.6305 0.912 29.4505 0.912 28.1785C0.912 26.9065 1.124 25.7305 1.548 24.6505C1.972 23.5625 2.568 22.6225 3.336 21.8305C4.112 21.0385 5.04 20.4225 6.12 19.9825C7.2 19.5345 8.396 19.3105 9.708 19.3105C10.588 19.3105 11.416 19.4145 12.192 19.6225C12.968 19.8225 13.68 20.1105 14.328 20.4865C14.976 20.8545 15.556 21.3065 16.068 21.8425C16.588 22.3705 17.028 22.9625 17.388 23.6185C17.748 24.2745 18.02 24.9865 18.204 25.7545C18.396 26.5225 18.492 27.3305 18.492 28.1785C18.492 28.9545 18.412 29.6985 18.252 30.4105C18.092 31.1145 17.86 31.7745 17.556 32.3905C17.26 33.0065 16.896 33.5745 16.464 34.0945C16.032 34.6065 15.54 35.0585 14.988 35.4505L19.392 40.2505Z" fill="#FF9F46"/>
<defs>
<filter id="filter0_d" x="3.74855" y="2.18384" width="31.4733" height="30.6173" filterUnits="userSpaceOnUse" color-interpolation-filters="sRGB">
<feFlood flood-opacity="0" result="BackgroundImageFix"/>
<feColorMatrix in="SourceAlpha" type="matrix" values="0 0 0 0 0 0 0 0 0 0 0 0 0 0 0 0 0 0 127 0"/>
<feOffset dx="2" dy="2"/>
<feGaussianBlur stdDeviation="5"/>
<feColorMatrix type="matrix" values="0 0 0 0 0 0 0 0 0 0 0 0 0 0 0 0 0 0 0.05 0"/>
<feBlend mode="normal" in2="BackgroundImageFix" result="effect1_dropShadow"/>
<feBlend mode="normal" in="SourceGraphic" in2="effect1_dropShadow" result="shape"/>
</filter>
<filter id="filter1_d" x="2.452" y="0.14917" width="28.7032" height="31.9537" filterUnits="userSpaceOnUse" color-interpolation-filters="sRGB">
<feFlood flood-opacity="0" result="BackgroundImageFix"/>
<feColorMatrix in="SourceAlpha" type="matrix" values="0 0 0 0 0 0 0 0 0 0 0 0 0 0 0 0 0 0 127 0"/>
<feOffset dx="2" dy="2"/>
<feGaussianBlur stdDeviation="5"/>
<feColorMatrix type="matrix" values="0 0 0 0 0 0 0 0 0 0 0 0 0 0 0 0 0 0 0.05 0"/>
<feBlend mode="normal" in2="BackgroundImageFix" result="effect1_dropShadow"/>
<feBlend mode="normal" in="SourceGraphic" in2="effect1_dropShadow" result="shape"/>
</filter>
</defs>
</svg>
