<svg width="63" height="82" viewBox="0 0 63 82" fill="none" xmlns="http://www.w3.org/2000/svg">
<g filter="url(#filter0_d)">
<circle cx="27.0107" cy="27.0819" r="12.6064" fill="white"/>
<path d="M20.9883 33.7874C22.5809 35.4225 24.7467 36.3461 27.0106 36.3461C28.1311 36.3461 29.2399 36.1195 30.2736 35.6799C31.3072 35.2404 32.2446 34.5969 33.033 33.7874C33.8213 32.9781 34.4453 32.0186 34.8706 30.9645C35.2959 29.9105 35.5144 28.7816 35.5144 27.6422C35.5144 25.3422 34.6247 23.1312 33.033 21.497C31.4404 19.8619 29.2746 18.9383 27.0106 18.9383C24.7467 18.9383 22.5809 19.8619 20.9883 21.497C19.3966 23.1312 18.5068 25.3422 18.5068 27.6422C18.5068 29.9423 19.3966 32.1532 20.9883 33.7874ZM27.0106 66.1645C26.9668 66.1125 26.9212 66.0583 26.8739 66.0019C26.3049 65.3238 25.4903 64.3353 24.5122 63.098C22.5551 60.6222 19.9471 57.1556 17.341 53.19C14.7331 49.2216 12.1388 44.7713 10.1995 40.3269C8.25456 35.8698 7 31.4897 7 27.6422C7 22.1781 9.11448 16.9429 12.8702 13.087C16.6251 9.23201 21.7121 7.07129 27.0106 7.07129C32.3092 7.07129 37.3962 9.23201 41.1511 13.087C44.9068 16.9429 47.0213 22.1781 47.0213 27.6422C47.0213 31.4897 45.7667 35.8698 43.8218 40.3269C41.8824 44.7713 39.2882 49.2216 36.6803 53.19C34.0742 57.1556 31.4662 60.6222 29.5091 63.098C28.5309 64.3353 27.7164 65.3238 27.1474 66.0019C27.1001 66.0583 27.0545 66.1125 27.0106 66.1645Z" fill="#FD5858" stroke="white" stroke-width="2"/>
</g>
<defs>
<filter id="filter0_d" x="0" y="0.0712891" width="62.0213" height="81.6312" filterUnits="userSpaceOnUse" color-interpolation-filters="sRGB">
<feFlood flood-opacity="0" result="BackgroundImageFix"/>
<feColorMatrix in="SourceAlpha" type="matrix" values="0 0 0 0 0 0 0 0 0 0 0 0 0 0 0 0 0 0 127 0"/>
<feOffset dx="4" dy="4"/>
<feGaussianBlur stdDeviation="5"/>
<feColorMatrix type="matrix" values="0 0 0 0 0.158333 0 0 0 0 0.158333 0 0 0 0 0.158333 0 0 0 0.25 0"/>
<feBlend mode="normal" in2="BackgroundImageFix" result="effect1_dropShadow"/>
<feBlend mode="normal" in="SourceGraphic" in2="effect1_dropShadow" result="shape"/>
</filter>
</defs>
</svg>
